HIERARCHY
ROOT Hips
{
	OFFSET -3.958830 18.904000 13.208200
	CHANNELS 6 Xposition Yposition Zposition Zrotation Yrotation Xrotation 
	JOINT LHipJoint
	{
		OFFSET 0.000000 0.000000 0.000000
		CHANNELS 3 Zrotation Yrotation Xrotation
		JOINT LeftUpLeg
		{
			OFFSET 1.800000 -1.400000 0.085000
			CHANNELS 3 Zrotation Yrotation Xrotation
			JOINT LeftLeg
			{
				OFFSET 2.215000 -6.000000 0.000000
				CHANNELS 3 Zrotation Yrotation Xrotation
				JOINT LeftFoot
				{
					OFFSET 2.500000 -6.900000 0.000000
					CHANNELS 3 Zrotation Yrotation Xrotation
					JOINT LeftToeBase
					{
						OFFSET 0.200000 -0.500000 1.950000
						CHANNELS 3 Zrotation Yrotation Xrotation
						End Site
						{
							OFFSET 0.000000 0.000000 0.000000
						}
					}
				}
			}
		}
	}
	JOINT RHipJoint
	{
		OFFSET 0.000000 0.000000 0.000000
		CHANNELS 3 Zrotation Yrotation Xrotation
		JOINT RightUpLeg
		{
			OFFSET -1.800000 -1.400000 0.085000
			CHANNELS 3 Zrotation Yrotation Xrotation
			JOINT RightLeg
			{
				OFFSET -2.215000 -6.000000 0.000000
				CHANNELS 3 Zrotation Yrotation Xrotation
				JOINT RightFoot
				{
					OFFSET -2.500000 -6.900000 0.000000
					CHANNELS 3 Zrotation Yrotation Xrotation
					JOINT RightToeBase
					{
						OFFSET -0.200000 -0.500000 1.950000
						CHANNELS 3 Zrotation Yrotation Xrotation
						End Site
						{
							OFFSET 0.000000 0.000000 0.000000
						}
					}
				}
			}
		}
	}
	JOINT LowerBack
	{
		OFFSET 0.000000 0.000000 0.000000
		CHANNELS 3 Zrotation Yrotation Xrotation
		JOINT Spine
		{
			OFFSET -0.087000 1.940000 -0.288900
			CHANNELS 3 Zrotation Yrotation Xrotation
			JOINT Spine1
			{
				OFFSET 0.000000 1.950000 0.060000
				CHANNELS 3 Zrotation Yrotation Xrotation
				JOINT Neck
				{
					OFFSET 0.000000 0.000000 0.000000
					CHANNELS 3 Zrotation Yrotation Xrotation
					JOINT Neck1
					{
						OFFSET 0.000000 1.600000 0.340000
						CHANNELS 3 Zrotation Yrotation Xrotation
						JOINT Head
						{
							OFFSET 0.000000 1.667000 -0.240000
							CHANNELS 3 Zrotation Yrotation Xrotation
							End Site
							{
								OFFSET 0.000000 0.000000 0.000000
							}
						}
					}
				}
				JOINT LeftShoulder
				{
					OFFSET 0.000000 0.000000 0.000000
					CHANNELS 3 Zrotation Yrotation Xrotation
					JOINT LeftArm
					{
						OFFSET 2.700000 1.550000 -0.730000
						CHANNELS 3 Zrotation Yrotation Xrotation
						JOINT LeftForeArm
						{
							OFFSET 5.450000 0.000000 0.000000
							CHANNELS 3 Zrotation Yrotation Xrotation
							JOINT LeftHand
							{
								OFFSET 3.450000 0.000000 0.000000
								CHANNELS 3 Zrotation Yrotation Xrotation
								JOINT LeftHandIndex1
								{
									OFFSET 0.750000 0.000000 0.000000
									CHANNELS 3 Zrotation Yrotation Xrotation
									End Site
									{
										OFFSET 0.000000 0.000000 0.000000
									}
								}
							}
						}
					}
				}
				JOINT RightShoulder
				{
					OFFSET 0.000000 0.000000 0.000000
					CHANNELS 3 Zrotation Yrotation Xrotation
					JOINT RightArm
					{
						OFFSET -2.700000 1.550000 -0.730000
						CHANNELS 3 Zrotation Yrotation Xrotation
						JOINT RightForeArm
						{
							OFFSET -5.450000 0.000000 0.000000
							CHANNELS 3 Zrotation Yrotation Xrotation
							JOINT RightHand
							{
								OFFSET -3.450000 0.000000 0.000000
								CHANNELS 3 Zrotation Yrotation Xrotation
								JOINT RightHandIndex1
								{
									OFFSET -0.750000 0.000000 0.000000
									CHANNELS 3 Zrotation Yrotation Xrotation
									End Site
									{
										OFFSET 0.000000 0.000000 0.000000
									}
								}
							}
						}
					}
				}
			}
		}
	}
}
MOTION
Frames: 7
Frame Time: 0.016667
-0.333610 15.678730 -2.662510 -10.032597 -39.522675 -5.088657 -16.662159 15.257153 4.135823 45.737330 -12.188302 6.452761 -3.121107 11.288447 18.537601 0.239610 9.429011 1.150173 0.144960 0.098510 0.256410 17.244194 -6.670149 1.632238 -0.893644 -0.183244 -25.350625 5.383412 -20.371571 62.115240 -1.688990 -10.640182 0.854545 0.201990 0.197270 0.021050 0.895638 -12.419744 -8.959597 -13.213839 -8.065282 17.603344 16.572520 -9.333545 16.632705 -14.984399 -0.533827 -9.666082 -15.752686 15.715910 36.125280 -7.320630 20.484830 -12.549640 2.713276 -29.756967 -12.605085 -10.469714 -50.792562 -5.172749 24.387098 -4.930397 -3.566552 -3.761889 3.153111 0.322620 0.276000 -0.102260 -0.049750 23.932298 21.497372 20.974546 48.818664 -11.269754 -24.403551 -2.076393 71.178014 -11.141037 1.353452 -2.017433 -0.353810 0.246840 0.108820 -0.325430 
-0.325050 15.731870 -2.639770 -10.938337 -39.570631 -4.801999 -16.591421 15.233572 4.042429 44.699732 -12.240161 7.850045 -1.562236 10.561763 17.175400 0.260154 9.284820 1.250203 0.107770 0.046330 0.245010 17.278017 -6.827164 1.638969 -0.636306 -0.148975 -24.247039 6.004326 -19.952645 60.127798 -1.591501 -10.306343 0.952242 0.178040 0.220270 0.029470 0.711126 -12.051148 -8.805029 -11.649093 -7.648678 17.443911 17.162238 -9.416235 17.635764 -15.247209 0.095918 -9.854326 -14.269682 14.906902 36.534856 -8.007960 20.757880 -11.648460 3.541266 -30.210238 -12.147961 -4.287761 -52.362267 -7.952609 19.223754 -2.710778 -2.601571 -3.684126 3.250742 0.309960 0.302610 -0.122450 -0.056380 23.570572 21.165737 20.092585 48.966769 -10.309347 -24.959742 -7.903491 69.948127 -13.934634 1.391381 -1.926774 -0.369360 0.236450 0.121160 -0.329780 
-0.310100 15.784730 -2.615220 -12.045002 -39.603939 -4.610442 -16.510645 15.171333 3.984187 43.858865 -12.304210 9.438072 -0.000222 9.877089 15.660118 0.293589 9.164568 1.335837 0.086900 0.011840 0.248090 17.323379 -6.991644 1.652224 -0.382005 -0.113241 -22.942259 6.652846 -19.678827 58.422841 -1.522274 -10.039247 1.032979 0.158540 0.220870 0.037330 0.485985 -11.604784 -8.702783 -9.710447 -7.125966 17.802850 17.481157 -9.417449 18.814819 -15.389347 0.688992 -10.156409 -12.854340 13.941703 36.864799 -8.906670 20.866830 -11.294150 3.897244 -31.033305 -11.346823 3.177096 -53.288136 -11.154594 15.136372 -1.605789 -1.978264 -3.674089 3.279963 0.303830 0.315820 -0.131710 -0.066820 23.375275 21.049208 19.282308 48.910330 -9.304990 -25.664088 -14.092518 69.430812 -17.181102 1.429462 -1.833055 -0.373760 0.218500 0.126060 -0.338640 
-0.298290 15.833720 -2.592810 -13.107024 -39.455905 -4.366326 -16.452095 15.112813 3.958849 43.252443 -12.391647 10.727728 1.450118 9.275585 14.244527 0.321240 9.063883 1.403904 0.076840 -0.008310 0.259530 17.356278 -7.123517 1.652940 -0.117568 -0.131686 -21.499423 7.407551 -19.402565 56.466766 -1.452456 -9.734659 1.122608 0.146950 0.211990 0.044990 0.307874 -11.246104 -8.619117 -8.006976 -6.764484 17.994804 17.769406 -9.503399 19.863944 -15.491724 1.297392 -10.334847 -11.508410 13.073631 37.236399 -9.808720 20.991370 -11.308670 4.303633 -31.680786 -10.647110 9.307484 -53.834410 -13.436618 12.274407 -0.705518 -1.532821 -3.689408 3.260463 0.303350 0.322010 -0.132410 -0.077000 23.044771 20.879798 18.549261 48.890578 -8.151141 -26.137982 -19.557190 68.976235 -19.987397 1.466922 -1.745366 -0.375410 0.201420 0.126080 -0.349140 
-0.288350 15.877050 -2.574000 -14.032499 -39.250722 -4.140349 -16.408055 15.058044 3.949530 42.769108 -12.501145 11.776724 2.627918 8.807877 13.076892 0.344949 8.986164 1.453780 0.069220 -0.022530 0.271580 17.380894 -7.238644 1.646447 0.157542 -0.184238 -20.188249 7.891869 -19.052095 54.754497 -1.388506 -9.443826 1.212217 0.137670 0.196870 0.046520 0.169444 -10.937246 -8.555944 -6.644680 -6.428765 18.122361 18.087627 -9.582322 20.716641 -15.505789 1.910532 -10.471138 -10.223911 12.309988 37.735879 -10.564630 21.113550 -11.547360 4.670727 -32.213697 -10.055818 14.368811 -53.835329 -15.178484 10.021320 -0.858199 -1.185826 -3.716827 3.228798 0.307950 0.321170 -0.128210 -0.087800 22.629543 20.723321 17.917681 49.079464 -7.037886 -26.414405 -24.037566 67.855322 -21.903957 1.506696 -1.666003 -0.377190 0.189440 0.125310 -0.360700 
-0.279070 15.911900 -2.554030 -14.824515 -38.820322 -3.797084 -16.368048 14.996992 3.957352 42.467234 -12.579275 12.350307 3.501870 8.437649 12.078696 0.355199 8.915418 1.494034 0.064770 -0.034130 0.278730 17.405446 -7.339671 1.637567 0.311198 -0.313303 -19.107168 8.394226 -18.815301 53.192188 -1.335963 -9.195655 1.289647 0.129800 0.189250 0.049320 0.018422 -10.670979 -8.497472 -5.266053 -6.302243 18.049044 18.238748 -9.768055 21.147041 -15.468562 2.352929 -10.510255 -9.319139 11.654944 38.122848 -10.980440 20.986680 -11.657390 5.133907 -32.541270 -9.770119 17.029304 -53.658989 -16.214803 8.993217 -2.057061 -1.012428 -3.732512 3.235545 0.314850 0.320010 -0.125280 -0.093630 22.081483 20.609834 17.478295 49.644093 -6.213970 -26.502440 -27.604307 66.424597 -23.114623 1.542930 -1.603466 -0.378820 0.183750 0.126550 -0.367930 
-0.271420 15.942760 -2.534690 -15.468357 -38.342557 -3.508343 -16.322435 14.921474 3.971544 42.246136 -12.615943 12.745006 4.199320 8.126972 11.129249 0.359312 8.849701 1.529422 0.062740 -0.034510 0.279280 17.438519 -7.442549 1.624208 0.425286 -0.458153 -18.037833 8.839845 -18.523137 51.608448 -1.277532 -8.941365 1.373348 0.132440 0.188990 0.044800 -0.154929 -10.396594 -8.426338 -3.899299 -6.242131 17.834182 18.226178 -9.946839 21.550793 -15.527074 2.772458 -10.522853 -8.487092 11.079115 38.360695 -11.011920 20.740520 -11.654880 5.502911 -32.936144 -9.586484 19.122825 -53.813902 -17.134828 8.662553 -2.470182 -0.946983 -3.756865 3.216500 0.313340 0.322840 -0.128090 -0.096120 21.792974 20.513652 17.148673 49.969348 -5.508039 -26.417081 -29.953140 64.986483 -23.681076 1.569535 -1.569434 -0.382560 0.187720 0.127540 -0.370580 
